PathFileType	4	(X/Y/Z)	TVC_9_Cal_03_0_static_RCNL2025.trc
DataRate	CameraRate	NumFrames	NumMarkers	Units	OrigDataRate	OrigDataStartFrame	OrigNumFrames
100	100	7	27	mm	100	1	260
Frame#	Time	R_Shoulder			L_Shoulder			C7			J_Notch			R_Elbow			L_Elbow			R_Wrist			L_Wrist			R_Asis			L_Asis			R_Psis			L_Psis			Sacral			Thoracic			Sternum			R_Thigh_Lateral			R_Knee_Lateral			R_Shank_Lateral			R_Ankle_Lateral			R_Heel			R_Toe			L_Thigh_Lateral			L_Knee_Lateral			L_Shank_Lateral			L_Ankle_Lateral			L_Heel			L_Toe		
		X1	Y1	Z1	X2	Y2	Z2	X3	Y3	Z3	X4	Y4	Z4	X5	Y5	Z5	X6	Y6	Z6	X7	Y7	Z7	X8	Y8	Z8	X9	Y9	Z9	X10	Y10	Z10	X11	Y11	Z11	X12	Y12	Z12	X13	Y13	Z13	X14	Y14	Z14	X15	Y15	Z15	X16	Y16	Z16	X17	Y17	Z17	X18	Y18	Z18	X19	Y19	Z19	X20	Y20	Z20	X21	Y21	Z21	X22	Y22	Z22	X23	Y23	Z23	X24	Y24	Z24	X25	Y25	Z25	X26	Y26	Z26	X27	Y27	Z27
1	0.00000000	-186.202545	1387.047363	-117.784615	-305.537781	1364.457031	-491.934143	-307.703003	1446.449097	-299.555969	-157.653305	1341.025879	-319.911591	-202.925919	1105.758667	57.271889	-310.132782	1038.154907	-590.290894	-141.355522	867.422302	39.367671	-234.661766	804.849731	-569.943420	-168.627579	937.633606	-130.844131	-234.957520	935.756714	-434.908508	-383.603210	953.298523	-193.546310	-402.198700	950.973816	-290.458435	-392.900955	952.136169	-242.002373	-398.216461	1168.430908	-253.531937	-107.406349	1149.056274	-320.222626	-250.783249	539.601196	-53.834793	-291.156189	443.266785	-114.648773	-268.641327	302.114594	-69.859070	-301.133392	74.158386	-140.052261	-355.147949	60.362175	-201.470901	-171.928131	48.978031	-179.375671	-236.646591	569.266541	-465.045868	-253.610855	419.973083	-412.144287	-273.428497	303.656219	-456.141876	-308.723419	80.020439	-378.698517	-354.070740	53.821102	-315.486023	-167.851913	44.333050	-372.622375
2	0.01000000	-186.093033	1387.106323	-117.947769	-305.592133	1364.441772	-491.975433	-307.704498	1446.376343	-299.644775	-157.664536	1341.047974	-319.932068	-202.935333	1105.832520	57.382961	-310.135864	1038.230591	-590.376282	-141.251907	867.523987	39.526467	-234.613922	804.911011	-570.085114	-168.604965	937.638000	-130.814087	-235.235962	935.412109	-434.502869	-383.547974	953.209351	-193.463745	-402.285767	950.931885	-290.400024	-392.916870	952.070618	-241.931885	-398.228210	1168.469482	-253.527176	-107.430992	1149.019409	-320.187042	-250.709915	539.507629	-53.759136	-291.108856	443.278534	-114.572243	-268.679230	302.126343	-69.826462	-301.146515	74.166908	-140.028259	-355.324066	60.319603	-201.514191	-171.933945	48.956089	-179.397766	-236.629654	569.304016	-465.074860	-253.617264	419.897736	-412.212524	-273.428894	303.714966	-456.259247	-308.709167	80.104126	-379.001892	-353.940704	53.750847	-315.374969	-167.966187	44.360096	-372.591827
3	0.02000000	-186.160004	1387.117920	-117.839714	-305.589081	1364.437988	-491.977875	-307.670135	1446.382935	-299.612488	-157.671158	1341.038452	-319.994568	-202.841400	1105.919922	57.530727	-310.124634	1038.225586	-590.474060	-141.190788	867.656219	39.692594	-234.487549	804.927338	-570.202118	-168.742691	937.641907	-130.957062	-235.153778	935.656982	-434.723389	-383.545532	953.187561	-193.460403	-402.265106	950.878174	-290.448181	-392.905319	952.032867	-241.954292	-398.202576	1168.419312	-253.556641	-107.473442	1148.945801	-320.182037	-250.474274	539.432861	-53.719997	-291.000397	443.282959	-114.578651	-268.964783	302.323059	-69.872063	-300.762634	73.989449	-140.434998	-355.248169	60.313717	-201.423157	-171.941696	48.968052	-179.394714	-236.544724	569.407776	-465.119843	-253.474182	419.865509	-412.236206	-273.449036	303.743591	-456.253510	-308.703613	80.101654	-379.011688	-354.096741	53.886436	-315.427734	-167.965073	44.351768	-372.584442
4	0.03000000	-186.183960	1387.119507	-117.820984	-305.634125	1364.456055	-491.877380	-307.679657	1446.374878	-299.584412	-157.665558	1341.049683	-319.954590	-202.730850	1106.025269	57.625992	-310.048065	1038.234863	-590.562012	-141.147705	867.730438	39.761931	-234.432884	804.950562	-570.343994	-168.627792	937.578857	-130.950348	-235.008438	935.731628	-434.882294	-383.631989	953.321838	-193.559341	-402.255280	950.852356	-290.434052	-392.943634	952.087097	-241.996696	-398.231171	1168.410400	-253.511810	-107.482384	1148.922974	-320.180969	-250.252396	539.466919	-53.746616	-290.843750	443.230438	-114.561775	-269.037720	302.260468	-69.931671	-301.030090	74.111771	-140.082016	-355.219330	60.427448	-201.454773	-171.973114	48.941849	-179.435364	-236.228683	569.408569	-465.135773	-253.266266	419.841278	-412.256775	-273.537964	304.072388	-456.167786	-308.652557	80.061920	-379.002411	-354.000702	53.830086	-315.462189	-167.885666	44.323048	-372.567810
5	0.04000000	-186.182755	1387.114502	-117.809746	-305.594666	1364.438232	-491.853760	-307.705963	1446.420654	-299.544647	-157.736511	1340.971191	-319.884857	-202.727615	1106.136353	57.749157	-309.966522	1038.263672	-590.669250	-141.023140	867.833221	39.843881	-234.297020	804.881012	-570.321075	-168.641571	937.610229	-131.010300	-235.012054	935.707092	-434.845367	-383.563568	953.203552	-193.468918	-402.258820	950.881042	-290.460144	-392.911194	952.042297	-241.964531	-398.228027	1168.465088	-253.502869	-107.447243	1148.962769	-320.317749	-250.041199	539.542603	-53.647888	-290.720673	443.202423	-114.263557	-268.843140	302.267639	-69.892052	-301.192078	74.159332	-139.948395	-355.229980	60.449966	-201.429031	-171.954468	49.000389	-179.352020	-236.003082	569.458313	-465.236511	-253.087662	419.799133	-412.288391	-273.334534	303.853333	-456.238770	-308.706421	79.973961	-378.712860	-353.910309	53.806313	-315.488159	-167.856674	44.292301	-372.570435
6	0.05000000	-186.168945	1387.130493	-117.824547	-305.585266	1364.446411	-491.852264	-307.708252	1446.423218	-299.557770	-157.673248	1340.877441	-319.808319	-202.669891	1106.276245	57.837749	-309.874451	1038.339600	-590.793823	-140.944977	867.996826	39.940222	-234.193703	804.939240	-570.389984	-168.637650	937.655029	-131.003906	-235.172134	935.732849	-434.852814	-383.545105	953.186157	-193.460495	-402.232452	950.750732	-290.559540	-392.888779	951.968445	-242.010017	-398.234436	1168.413086	-253.485367	-107.520432	1148.777344	-320.169708	-249.900772	539.521423	-53.546791	-290.552032	443.193604	-114.276344	-268.882935	302.291199	-69.939400	-301.236725	74.231323	-139.950882	-355.192322	60.439667	-201.425247	-171.990921	48.989994	-179.395859	-235.727982	569.480347	-465.264343	-252.911423	419.778168	-412.300995	-273.230347	303.980499	-456.121796	-308.656586	79.979507	-378.706573	-353.908356	53.806046	-315.484344	-167.810013	44.263363	-372.641144
7	0.06000000	-186.112534	1387.094727	-117.875969	-305.593903	1364.447266	-491.845398	-307.700165	1446.343750	-299.560455	-157.732758	1340.877808	-319.858917	-202.630753	1106.357178	58.026043	-309.787933	1038.354614	-590.908875	-140.813828	868.163971	40.042021	-234.025932	804.981323	-570.481140	-168.707993	937.664368	-130.929901	-235.147751	935.743652	-434.929626	-383.544708	953.174255	-193.468903	-402.205658	950.758057	-290.613464	-392.875183	951.966156	-242.041183	-398.233704	1168.408813	-253.484955	-107.588081	1148.713013	-320.053253	-249.462708	539.315613	-53.779198	-290.471985	443.181122	-114.264793	-268.880646	302.298798	-69.998360	-301.220581	74.217682	-139.964828	-355.185333	60.435333	-201.427170	-171.964981	49.011421	-179.376297	-235.472626	569.509155	-465.322968	-252.772629	419.790771	-412.310974	-273.142517	303.605286	-456.306519	-308.633911	79.939651	-378.757904	-353.914124	53.813320	-315.490295	-167.821716	44.261414	-372.658936
